# xmcd
#
# Track frame offsets:
#	150
#	21270
#	37224
#	53760
#	68115
#	87930
#	104760
#	120615
#	142755
#
# Disc length: 2169 seconds
#
# Revision: 1
# Processed by: cddbd v1.4PL0 Copyright (c) Steve Scherf et al.
# Submitted via: EasyCDDAExtractor 5.0.6
#
DISCID=7b087709
DTITLE=Various Artist - Witness
DYEAR=2000
DGENRE=Blues
TTITLE0=Ocean Of Power
TTITLE1=Spooky Tooth - Wings Of My Heart
TTITLE2=As Long As The World Keeps Turning
TTITLE3=Don't Ever Stray Away
TTITLE4=Things Change
TTITLE5=All Sewn Up
TTITLE6=Dream Me A Mountain
TTITLE7=Sunlight Of My Mind
TTITLE8=Pyramids
EXTD=
EXTT0=
EXTT1=
EXTT2=
EXTT3=
EXTT4=
EXTT5=
EXTT6=
EXTT7=
EXTT8=
PLAYORDER=
